<svg xmlns="http://www.w3.org/2000/svg" version="1.1" xmlns:xlink="http://www.w3.org/1999/xlink" width="1000" height="1000"><g clip-path="url(#SvgjsClipPath1426)"><rect width="1000" height="1000" fill="#0a0a0a"></rect><g transform="matrix(9.58904109589041,0,0,9.58904109589041,154.79452054794524,150)"><svg xmlns="http://www.w3.org/2000/svg" width="72" height="73" viewBox="0 0 72 73" fill="none"><path d="M29.1829 55.5V41.439C29.1829 40.195 27.4709 39.8564 26.9973 41.0066L14.116 70.5152C13.6212 71.7169 15.2059 72.6729 16.0382 71.6748L28.9194 56.2272C29.0896 56.0231 29.1829 55.7657 29.1829 55.5Z" fill="#FAFAFA"></path><path d="M56.139 28.2957L32.5606 52.9574C31.853 53.6975 30.6042 53.1967 30.6042 52.1726V8.86248C30.6042 7.9489 31.5926 7.45848 32.3048 7.87399C32.5152 7.99681 32.6826 8.18177 32.8738 8.33294L55.8776 26.5271C56.0688 26.6782 56.2648 26.8377 56.3613 27.0615C56.5371 27.4697 56.4617 27.9581 56.139 28.2957Z" fill="#FAFAFA"></path><path d="M0.64677 0.10718C0.95103 -0.0364659 1.30309 0.0400312 1.63009 0.119271L27.5562 6.40183C27.8832 6.48107 28.235 6.48661 28.5384 6.63195C28.9203 6.81487 29.184 7.20498 29.184 7.65669V37.6784C29.184 38.4841 28.4 38.9807 27.7128 38.7662C27.4135 38.6727 27.2106 38.4089 27.0247 38.1564L0.673573 2.37332C0.487641 2.12084 0.243191 1.90502 0.107603 1.6223C-0.159928 1.06445 0.090576 0.369767 0.64677 0.10718Z" fill="#FAFAFA"></path><path d="M60.5189 5.82445L58.9106 24.9753C58.7722 25.7809 57.886 26.1427 57.2377 25.7769C57.0194 25.6538 56.8465 25.4635 56.6489 25.3093L40.9824 13.0805C40.7849 12.9263 40.5816 12.7633 40.4836 12.5327C40.2253 11.925 40.5465 11.1782 41.2382 10.9936L59.1068 4.53503C59.9068 4.32151 60.659 5.00839 60.5189 5.82445Z" fill="#FAFAFA"></path><path d="M61.2287 14.9594L61.9402 5.75853C62.07 5.01962 62.8422 4.64188 63.48 4.89872C63.7187 4.99485 63.9186 5.16764 64.1396 5.29952L71.2806 9.56163C71.5015 9.69351 71.7298 9.83402 71.8563 10.0581C72.1299 10.5429 72.0019 11.1686 71.5655 11.5088C71.3421 11.6829 71.0625 11.7689 70.8126 11.9022L63.0474 16.0437C62.7975 16.177 62.5326 16.3124 62.2504 16.2887C61.6159 16.2356 61.1084 15.6439 61.2287 14.9594Z" fill="#FAFAFA"></path></svg></g></g><defs><clipPath id="SvgjsClipPath1426"><rect width="1000" height="1000" x="0" y="0" rx="0" ry="0"></rect></clipPath></defs></svg>